<svg width="1692" height="1034" viewBox="0 0 1692 1034" fill="none" xmlns="http://www.w3.org/2000/svg">
<path d="M48.4604 19.9315L-21 46.1825V1034H1692V0C1692 0 1687.19 4.37518 1673.83 11.181C1660.48 17.9868 1586.74 40.3489 1566.44 46.1825C1566.44 46.1825 1499.63 62.4096 1433.39 54.9328C1367.15 47.4559 1378.69 34.4468 1320.12 19.9315C1261.55 5.41613 1173.84 9.28982 1095.71 19.9315C1017.58 30.5731 1050.04 22.4468 927.401 60.2802C804.76 98.1136 760.11 62.3017 615.364 78.267C470.618 94.2324 456.999 81.6476 347.674 60.2802C238.35 38.9128 184.465 25.1639 157.46 19.9315C130.454 14.6991 100.548 6.95351 48.4604 19.9315Z" fill="#D0E3FF"/>
</svg>
